<?xml version="1.0" encoding="iso-8859-1"?>
<!-- Generator: Adobe Illustrator 19.0.0, SVG Export Plug-In . SVG Version: 6.00 Build 0)  -->
<svg version="1.1" id="Capa_1" xmlns="http://www.w3.org/2000/svg" xmlns:xlink="http://www.w3.org/1999/xlink" x="0px" y="0px"
	 viewBox="0 0 65.842 65.842" style="enable-background:new 0 0 65.842 65.842;" xml:space="preserve">
<g>
	<path d="M12.258,55.574c0,3.387-2.745,6.131-6.129,6.131l0,0C2.744,61.705,0,58.961,0,55.574V10.267c0-3.386,2.744-6.13,6.129-6.13
		l0,0c3.385,0,6.129,2.744,6.129,6.13V55.574z"/>
	<path d="M30.414,55.574c0,3.387-2.744,6.131-6.129,6.131l0,0c-3.385,0-6.129-2.744-6.129-6.131V21.781
		c0-3.386,2.745-6.13,6.129-6.13l0,0c3.385,0,6.129,2.744,6.129,6.13V55.574z"/>
	<path d="M48.128,55.574c0,3.387-2.745,6.131-6.13,6.131l0,0c-3.385,0-6.13-2.744-6.13-6.131V30.637c0-3.386,2.745-6.13,6.13-6.13
		l0,0c3.385,0,6.13,2.744,6.13,6.13V55.574z"/>
	<path d="M65.842,55.574c0,3.387-2.744,6.131-6.131,6.131l0,0c-3.384,0-6.129-2.744-6.129-6.131V38.608
		c0-3.385,2.745-6.13,6.129-6.13l0,0c3.387,0,6.131,2.745,6.131,6.13V55.574z"/>
</g>
<g>
</g>
<g>
</g>
<g>
</g>
<g>
</g>
<g>
</g>
<g>
</g>
<g>
</g>
<g>
</g>
<g>
</g>
<g>
</g>
<g>
</g>
<g>
</g>
<g>
</g>
<g>
</g>
<g>
</g>
</svg>
