<?xml version="1.0" encoding="iso-8859-1"?>
<!-- Generator: Adobe Illustrator 19.0.0, SVG Export Plug-In . SVG Version: 6.00 Build 0)  -->
<svg version="1.1" id="Capa_1" xmlns="http://www.w3.org/2000/svg" xmlns:xlink="http://www.w3.org/1999/xlink" x="0px" y="0px"
	 viewBox="0 0 56.654 56.654" style="enable-background:new 0 0 56.654 56.654;" xml:space="preserve">
<g>
	<path d="M55.043,27.283L31.977,4.306c-0.946-0.942-2.27-1.479-3.66-1.479c-1.389,0-2.714,0.535-3.66,1.478L1.348,27.525
		C1.29,27.582,1.235,27.64,1.18,27.699c-0.362,0.398-0.641,0.838-0.836,1.297c-0.193,0.459-0.311,0.949-0.338,1.463
		C0.002,30.537,0,30.613,0,30.69c0,0.021,0,0.037,0,0.06c0.009,0.635,0.155,1.242,0.414,1.791c0.259,0.553,0.638,1.063,1.135,1.504
		c0.002,0.002,0.004,0.004,0.004,0.004c0.07,0.063,0.144,0.123,0.218,0.182c0.002,0,0.002,0.002,0.004,0.002
		c0.438,0.344,0.924,0.605,1.434,0.787c0.481,0.172,0.999,0.275,1.538,0.303c0.002,0,0.003,0,0.005,0
		c0.086,0.002,0.142,0.002,0.262,0.004H51.62c0.006,0,0.01,0,0.015,0c0.007,0,0.015,0,0.019,0c2.762,0,5-2.073,5-4.635
		C56.654,29.344,56.033,28.131,55.043,27.283z"/>
	<path d="M56.654,48.161c0,3.129-2.537,5.666-5.668,5.666H5.667C2.537,53.827,0,51.29,0,48.161l0,0c0-3.131,2.537-5.668,5.667-5.668
		h45.318C54.117,42.493,56.654,45.03,56.654,48.161L56.654,48.161z"/>
</g>
<g>
</g>
<g>
</g>
<g>
</g>
<g>
</g>
<g>
</g>
<g>
</g>
<g>
</g>
<g>
</g>
<g>
</g>
<g>
</g>
<g>
</g>
<g>
</g>
<g>
</g>
<g>
</g>
<g>
</g>
</svg>
