<?xml version="1.0" encoding="iso-8859-1"?>
<!-- Generator: Adobe Illustrator 19.0.0, SVG Export Plug-In . SVG Version: 6.00 Build 0)  -->
<svg version="1.1" id="Capa_1" xmlns="http://www.w3.org/2000/svg" xmlns:xlink="http://www.w3.org/1999/xlink" x="0px" y="0px"
	 viewBox="0 0 79.285 79.285" style="enable-background:new 0 0 79.285 79.285;" xml:space="preserve">
<g>
	<path d="M18.981,16.989c0-3.386-2.745-6.13-6.13-6.13c-3.386,0-6.13,2.744-6.13,6.13v32.276H0v5.298h6.721v7.733
		c0,3.387,2.744,6.131,6.13,6.131c3.385,0,6.13-2.744,6.13-6.131v-7.733h6.721v-5.298h-6.721V16.989z"/>
	<path d="M45.772,16.989c0-3.386-2.745-6.13-6.13-6.13c-3.386,0-6.13,2.744-6.13,6.13v4.654h-6.721v5.296h6.721v35.356
		c0,3.387,2.744,6.131,6.13,6.131c3.385,0,6.13-2.744,6.13-6.131V26.94h6.722v-5.297h-6.722V16.989z"/>
	<path d="M79.285,49.265h-6.722V16.989c0-3.386-2.745-6.13-6.13-6.13c-3.387,0-6.13,2.744-6.13,6.13v32.276h-6.722v5.298h6.722
		v7.733c0,3.387,2.743,6.131,6.13,6.131c3.385,0,6.13-2.744,6.13-6.131v-7.733h6.722V49.265z"/>
</g>
<g>
</g>
<g>
</g>
<g>
</g>
<g>
</g>
<g>
</g>
<g>
</g>
<g>
</g>
<g>
</g>
<g>
</g>
<g>
</g>
<g>
</g>
<g>
</g>
<g>
</g>
<g>
</g>
<g>
</g>
</svg>
