<?xml version="1.0" encoding="iso-8859-1"?>
<!-- Generator: Adobe Illustrator 19.0.0, SVG Export Plug-In . SVG Version: 6.00 Build 0)  -->
<svg version="1.1" id="Capa_1" xmlns="http://www.w3.org/2000/svg" xmlns:xlink="http://www.w3.org/1999/xlink" x="0px" y="0px"
	 viewBox="0 0 63.49 63.49" style="enable-background:new 0 0 63.49 63.49;" xml:space="preserve">
<g>
	<path d="M55.021,18.105c0-0.791-0.771-1.708-1.283-2.02c-0.477-0.289-1.438-0.492-2.209-0.293l-29.324,7.662
		c-1.124,0.294-1.908,1.309-1.908,2.472v2.259l-0.011,0.003v21.431c0.491,1.392,0.562,3.026,0.09,4.785
		c-1.345,5.019-6.503,9.086-11.521,9.086c-5.02,0-7.996-4.067-6.652-9.086c1.345-5.021,6.504-9.087,11.521-9.087
		c0.066,0,0.129,0.009,0.193,0.011l-0.375-30.58c0-1.926,1.295-3.609,3.156-4.103L56.276,0.142c1.276-0.338,2.633-0.064,3.677,0.738
		c1.045,0.805,1.657,2.047,1.657,3.365l-0.382,36.682c0.328,1.264,0.324,2.701-0.086,4.229c-1.345,5.019-6.502,9.086-11.521,9.086
		s-7.996-4.067-6.651-9.086c1.344-5.019,6.504-9.087,11.521-9.087c0.125,0,0.244,0.015,0.369,0.019L55.021,18.105z"/>
</g>
<g>
</g>
<g>
</g>
<g>
</g>
<g>
</g>
<g>
</g>
<g>
</g>
<g>
</g>
<g>
</g>
<g>
</g>
<g>
</g>
<g>
</g>
<g>
</g>
<g>
</g>
<g>
</g>
<g>
</g>
</svg>
