<?xml version="1.0" encoding="iso-8859-1"?>
<!-- Generator: Adobe Illustrator 19.0.0, SVG Export Plug-In . SVG Version: 6.00 Build 0)  -->
<svg version="1.1" id="Capa_1" xmlns="http://www.w3.org/2000/svg" xmlns:xlink="http://www.w3.org/1999/xlink" x="0px" y="0px"
	 viewBox="0 0 66.816 66.816" style="enable-background:new 0 0 66.816 66.816;" xml:space="preserve">
<g>
	<path d="M39.168,4.637c-1.34-0.653-2.938-0.483-4.11,0.436l-12.491,9.789c-0.682-0.199-1.398-0.312-2.144-0.312H7.609
		C3.407,14.55,0,17.958,0,22.159v22.193c0,4.201,3.407,7.607,7.609,7.607h12.814c0.64,0,1.257-0.088,1.849-0.234l12.786,10.018
		c0.7,0.548,1.55,0.83,2.404,0.83c0.581,0,1.165-0.13,1.706-0.395c1.34-0.651,2.191-2.012,2.191-3.504V8.14
		C41.359,6.648,40.508,5.289,39.168,4.637z"/>
	<path d="M64.334,36.028H52.156c-1.371,0-2.481-1.11-2.481-2.482c0-1.371,1.11-2.482,2.481-2.482h12.179
		c1.37,0,2.481,1.111,2.481,2.482C66.816,34.918,65.705,36.028,64.334,36.028z"/>
	<path d="M64.298,12.535l-10.548,6.09c-1.188,0.686-2.705,0.279-3.391-0.908c-0.686-1.188-0.279-2.705,0.907-3.392l10.548-6.089
		c1.188-0.686,2.705-0.279,3.391,0.908C65.89,10.333,65.486,11.85,64.298,12.535z"/>
	<path d="M64.621,54.455l-10.547-6.09c-1.188-0.687-2.705-0.279-3.392,0.908c-0.685,1.188-0.278,2.704,0.908,3.392l10.548,6.089
		c1.188,0.687,2.705,0.279,3.391-0.907C66.215,56.657,65.809,55.139,64.621,54.455z"/>
</g>
<g>
</g>
<g>
</g>
<g>
</g>
<g>
</g>
<g>
</g>
<g>
</g>
<g>
</g>
<g>
</g>
<g>
</g>
<g>
</g>
<g>
</g>
<g>
</g>
<g>
</g>
<g>
</g>
<g>
</g>
</svg>
